# xmcd
#
# Track frame offsets:
#	150
#	13243
#	26644
#	43157
#	58267
#	70289
#	83201
#	97217
#	111570
#	127456
#	142717
#	156188
#	170347
#	182769
#	196735
#	216131
#
# Disc length: 3009 seconds
#
# Revision: 0
# Processed by: cddbd v1.5.2PL0 Copyright (c) Steve Scherf et al.
# Submitted via: EasyCDDAExtractor 16.0.6.1
#
DISCID=f20bbf10
DTITLE=Μπέλλου Σωτηρία - Ογδόντα μεγάλες επιτυχίες-Σ. Μπέλλου 2
DYEAR=2010
DGENRE=Ποικίλη
TTITLE0=Κάτω στα Λεμονάδικα [Βαγγέλης Παπάζογλου]
TTITLE1=Χατζηκυριάκειο [Δ. Γκόγκος Μπαγιαντέρας]
TTITLE2=Μη μού ξαναφύγεις πια [Βασίλης Τσιτσάνης]
TTITLE3=Η άμαξα μέσ' στη βροχή [Απ. Χατζηχρήστος-Χ. Βασιλειάδης]
TTITLE4=Τέτοια κούκλα και τσαχπίνα [Χρήστος Κολοκοτρώνης]
TTITLE5=Λίγα ψίχουλα αγάπης σού γυρεύω [Στ.Τζουανάκος-Κ.Βίρβος]
TTITLE6=Ντερμπεντέρισσα [Βασίλης Τσιτσάνης]
TTITLE7=Ένας αλήτης πέθανε [Κ. Καπλάνης-Κ. Μάνεσης]
TTITLE8=Πειραιάς κι Αθήνα [Χρήστος Κολοκοτρώνης]
TTITLE9=Αντιλαλούνε τα βουνά [Βασίλης Τσιτσάνης]
TTITLE10=Είμαστε φίλοι [Κ. Σκαρπέλης-Σ. Μπέλλου]
TTITLE11=Είμαι απόψε στα μεράκια [Κ. Καπλάνης-Β. Ταμβάκης]
TTITLE12=Είμαι ένα παλιόπαιδο [Μαρ. Γαβριήλ-Σ. Μπέλλου]
TTITLE13=Μερακλήδες [Βασίλης Τσιτσάνης]
TTITLE14=Μην κλαίς [Η. Ανδριόπουλος-Μ. Μπουρμπούλης]
TTITLE15=Νταλίκα [Δ. Μούτσης-Κ. Τριπολίτης]
EXTD=
EXTT0=
EXTT1=
EXTT2=
EXTT3=
EXTT4=
EXTT5=
EXTT6=
EXTT7=
EXTT8=
EXTT9=
EXTT10=
EXTT11=
EXTT12=
EXTT13=
EXTT14=
EXTT15=
PLAYORDER=
